<svg xmlns="http://www.w3.org/2000/svg" viewBox="0 0 64 64">
  <defs>
    <linearGradient id="mark" x1="10" y1="8" x2="54" y2="56" gradientUnits="userSpaceOnUse">
      <stop stop-color="#d4a84f"/>
      <stop offset="1" stop-color="#d95b43"/>
    </linearGradient>
  </defs>
  <rect width="64" height="64" rx="12" fill="#090909"/>
  <rect x="10" y="10" width="44" height="44" rx="8" fill="url(#mark)"/>
  <path d="M26 20h8.7c4.7 0 7.6 2.4 7.6 6.1 0 2.4-1.2 4.1-3.3 5 2.7.8 4.3 2.8 4.3 5.8 0 4.4-3.2 7.1-8.6 7.1H26V20Zm7.9 9.1c2.2 0 3.4-.9 3.4-2.6s-1.2-2.6-3.4-2.6h-3v5.2h3Zm.5 10.8c2.5 0 3.9-1.1 3.9-3.1 0-2.1-1.4-3.2-3.9-3.2h-3.5v6.3h3.5Z" fill="#090909"/>
</svg>
