<svg xmlns="http://www.w3.org/2000/svg" viewBox="0 0 64 64" role="img" aria-label="BoiledStream">
  <defs>
    <linearGradient id="bg" x1="8" y1="6" x2="56" y2="58" gradientUnits="userSpaceOnUse">
      <stop stop-color="#111317"/>
      <stop offset="1" stop-color="#050608"/>
    </linearGradient>
    <linearGradient id="tri" x1="32" y1="9" x2="32" y2="56" gradientUnits="userSpaceOnUse">
      <stop stop-color="#b7ff2b"/>
      <stop offset="0.54" stop-color="#7df526"/>
      <stop offset="1" stop-color="#29d96f"/>
    </linearGradient>
    <filter id="softGlow" x="-35%" y="-35%" width="170%" height="170%" color-interpolation-filters="sRGB">
      <feGaussianBlur stdDeviation="1.6" result="blur"/>
      <feColorMatrix
        in="blur"
        type="matrix"
        values="0 0 0 0 0.48 0 0 0 0 1 0 0 0 0 0.14 0 0 0 0.55 0"
        result="glow"
      />
      <feMerge>
        <feMergeNode in="glow"/>
        <feMergeNode in="SourceGraphic"/>
      </feMerge>
    </filter>
    <clipPath id="triangleClip">
      <path d="M32 10 56 53H8Z"/>
    </clipPath>
  </defs>

  <rect width="64" height="64" rx="14" fill="url(#bg)"/>
  <path d="M32 8 59 56H5Z" fill="#050608"/>
  <path d="M32 10 56 53H8Z" fill="url(#tri)" filter="url(#softGlow)"/>
  <g clip-path="url(#triangleClip)" opacity="0.58">
    <path d="M31 18h3v4h-3zM21 26h3v4h-3zM42 26h3v4h-3zM28 37h3v4h-3zM35 37h3v4h-3z" fill="#eaff8f"/>
    <path d="M32 14 38 25H26Zm-12 17 5 9H15Zm24 0 5 9H39Zm-12 10 5 9H27Z" fill="none" stroke="#f1ff7a" stroke-width="1.3"/>
    <path d="M32 10 56 53H8Z" fill="none" stroke="#e6ff44" stroke-width="1.2"/>
  </g>
  <path d="M32 10 56 53H8Z" fill="none" stroke="#cfff21" stroke-width="2.2" stroke-linejoin="round"/>
  <path d="M32 13 52.8 51H11.2Z" fill="none" stroke="#ecff93" stroke-width="0.9" stroke-linejoin="round" opacity="0.78"/>

  <text
    x="32"
    y="42"
    fill="#050608"
    font-family="Inter, Segoe UI, Arial, sans-serif"
    font-size="29"
    font-weight="950"
    text-anchor="middle"
  >B</text>
</svg>
